<?xml version="1.0" encoding="UTF-8"?>
<svg width="512" height="512" viewBox="0 0 512 512" xmlns="http://www.w3.org/2000/svg">
  <!-- Background circle (optional, for better visibility in some contexts) -->
  <circle cx="256" cy="256" r="256" fill="#121212" opacity="0" />
  
  <!-- Main clock body -->
  <g id="clock">
    <circle cx="280" cy="256" r="160" fill="#0088cc" />
    
    <!-- Clock face markings -->
    <line x1="280" y1="116" x2="280" y2="136" stroke="white" stroke-width="8" />
    <line x1="280" y1="376" x2="280" y2="396" stroke="white" stroke-width="8" />
    <line x1="140" y1="256" x2="160" y2="256" stroke="white" stroke-width="8" />
    <line x1="400" y1="256" x2="420" y2="256" stroke="white" stroke-width="8" />
    
    <!-- Diagonal markings -->
    <line x1="210" y1="186" x2="220" y2="196" stroke="white" stroke-width="8" />
    <line x1="340" y1="316" x2="350" y2="326" stroke="white" stroke-width="8" />
    <line x1="210" y1="326" x2="220" y2="316" stroke="white" stroke-width="8" />
    <line x1="340" y1="196" x2="350" y2="186" stroke="white" stroke-width="8" />
    
    <!-- Clock hands -->
    <line x1="280" y1="256" x2="280" y2="156" stroke="white" stroke-width="10" />
    <line x1="280" y1="256" x2="350" y2="256" stroke="white" stroke-width="8" />
    
    <!-- Clock legs -->
    <path d="M220,380 L240,420 L320,420 L340,380" fill="#0088cc" />
  </g>
  
  <!-- Shattered pieces -->
  <g id="shattered-pieces">
    <!-- Small fragments -->
    <polygon points="120,220 140,230 130,250" fill="#0088cc" />
    <polygon points="100,260 120,270 110,290" fill="#0088cc" />
    <polygon points="90,200 110,210 100,230" fill="#0088cc" />
    <polygon points="70,240 90,250 80,270" fill="#0088cc" />
    
    <!-- Medium fragments -->
    <polygon points="130,180 160,200 140,230 110,210" fill="#0088cc" />
    <polygon points="100,150 130,170 110,200 80,180" fill="#0088cc" />
    <polygon points="70,190 100,210 80,240 50,220" fill="#0088cc" />
    
    <!-- Large fragments -->
    <path d="M140,140 L180,160 L160,200 L130,220 L100,190 L120,150 Z" fill="#0088cc" />
    <path d="M90,120 L130,140 L110,180 L80,200 L50,170 L70,130 Z" fill="#0088cc" />
    
    <!-- Cracks in the main clock -->
    <path d="M140,200 L180,220 L200,240" fill="none" stroke="#0088cc" stroke-width="4" />
    <path d="M160,180 L200,200 L220,220" fill="none" stroke="#0088cc" stroke-width="3" />
    <path d="M180,160 L220,180 L240,200" fill="none" stroke="#0088cc" stroke-width="2" />
  </g>
</svg> 